<svg id="Layer_1" data-name="Layer 1" xmlns="http://www.w3.org/2000/svg" viewBox="0 0 776.63 752.95"><defs><style>.cls-1{fill:#fff;}</style></defs><path class="cls-1" d="M143.33,122.37c42,18.67,108.91,45.76,157.29,52.21a21.21,21.21,0,0,1,18.47,21.9c-10.7,246.36-7.11,376.69-3.29,437.77C317,652.52,339.09,660.91,352,648l40-40c34.4-34.4,68.8-101.68,9-390.31C397.45,200.74,414.6,186.9,430.4,194c41.39,18.46,107.86,45.46,156.45,52.38A21.26,21.26,0,0,1,605,270.13c-20,152.82-12.83,249.32-5.3,298.41,2.64,17.2,23.73,24.06,36,11.76L680,536c17-17,34.06-34.06,5.35-249.31a21.25,21.25,0,0,1,29.78-22.2c40.31,18.12,107.24,45.68,156.87,53.42A21.25,21.25,0,0,1,889.42,344c-32.26,129.63-12,255.1-.21,308.76a21.22,21.22,0,0,1-20.45,25.79c-33.15.47-92.59,8.14-155.89,49.19A21.26,21.26,0,0,1,680,710h0a21.25,21.25,0,0,0-21-21.25l-28.38-.4A21.25,21.25,0,0,0,609.12,709l-.61,23.55a21.23,21.23,0,0,1-19.17,20.59c-30.87,3-96.1,13.57-165.81,51.78A21.27,21.27,0,0,1,392,786.31V773.25A21.24,21.24,0,0,0,370.75,752h-29.5A21.24,21.24,0,0,0,320,773.25V804a21.23,21.23,0,0,1-19.17,21.14c-29.41,2.86-89.14,12.61-154.25,45.87-16.06,8.21-34.43-6-30.39-23.63,69.44-302.1,20.49-594.73-2.28-701.21A21.24,21.24,0,0,1,143.33,122.37Z" transform="translate(-113.42 -120.49)"/></svg>